<?xml version="1.0" encoding="utf-8"?>
<!-- Generator: Adobe Illustrator 25.4.1, SVG Export Plug-In . SVG Version: 6.00 Build 0)  -->
<svg version="1.1" id="Layer_1" xmlns="http://www.w3.org/2000/svg" xmlns:xlink="http://www.w3.org/1999/xlink" x="0px" y="0px"
	 viewBox="0 0 600 222.5" style="enable-background:new 0 0 600 222.5;" xml:space="preserve">
<style type="text/css">
	.st0{opacity:0.5;fill:#FF513F;enable-background:new    ;}
	.st1{fill:none;stroke:#000000;stroke-width:0.5;stroke-miterlimit:10;}
	.st2{opacity:0.4;fill:none;stroke:#000000;stroke-width:0.5;stroke-miterlimit:10;enable-background:new    ;}
	.st3{fill:#383838;stroke:#FFFFFF;stroke-miterlimit:10;}
	.st4{opacity:0.5;}
	.st5{fill:#383838;}
	.st6{font-family:'MyriadPro-Regular';}
	.st7{font-size:12px;}
	.st8{enable-background:new    ;}
	.st9{fill:#4D4D4D;}
	.st10{font-size:14px;}
	.st11{font-family:'ArialHebrew-Light';}
	.st12{font-family:'Arial-BoldMT';}
	.st13{fill:none;stroke:#383838;stroke-width:0.5;stroke-miterlimit:10;}
	.st14{fill:#FFFFFF;stroke:#383838;stroke-miterlimit:10;}
</style>
<rect x="359.3" y="91.2" class="st0" width="112.3" height="11.5"/>
<g>
	<line class="st1" x1="396.4" y1="107" x2="396.4" y2="87"/>
	<line class="st2" x1="583.3" y1="99.8" x2="583.3" y2="94.2"/>
	<line class="st2" x1="577.1" y1="99.8" x2="577.1" y2="94.2"/>
	<line class="st2" x1="570.9" y1="99.8" x2="570.9" y2="94.2"/>
	<line class="st2" x1="564.7" y1="99.8" x2="564.7" y2="94.2"/>
	<line class="st2" x1="558.4" y1="99.8" x2="558.4" y2="94.2"/>
	<line class="st2" x1="552.1" y1="99.8" x2="552.1" y2="94.2"/>
	<line class="st2" x1="545.9" y1="99.8" x2="545.9" y2="94.2"/>
	<line class="st2" x1="539.7" y1="99.8" x2="539.7" y2="94.2"/>
	<line class="st2" x1="533.5" y1="99.8" x2="533.5" y2="94.2"/>
	<line class="st2" x1="527.3" y1="99.8" x2="527.3" y2="94.2"/>
	<line class="st2" x1="521.1" y1="99.8" x2="521.1" y2="94.2"/>
	<line class="st2" x1="514.7" y1="99.8" x2="514.7" y2="94.2"/>
	<line class="st2" x1="508.5" y1="99.8" x2="508.5" y2="94.2"/>
	<line class="st2" x1="502.3" y1="99.8" x2="502.3" y2="94.2"/>
	<line class="st2" x1="496.1" y1="99.8" x2="496.1" y2="94.2"/>
	<line class="st2" x1="489.9" y1="99.8" x2="489.9" y2="94.2"/>
	<line class="st2" x1="483.7" y1="99.8" x2="483.7" y2="94.2"/>
	<line class="st2" x1="477.4" y1="99.8" x2="477.4" y2="94.2"/>
	<line class="st2" x1="471.1" y1="99.8" x2="471.1" y2="94.2"/>
	<line class="st2" x1="464.9" y1="99.8" x2="464.9" y2="94.2"/>
	<line class="st2" x1="458.7" y1="99.8" x2="458.7" y2="94.2"/>
	<line class="st2" x1="452.5" y1="99.8" x2="452.5" y2="94.2"/>
	<line class="st2" x1="446.3" y1="99.8" x2="446.3" y2="94.2"/>
	<line class="st2" x1="440" y1="99.8" x2="440" y2="94.2"/>
	<line class="st2" x1="433.8" y1="99.8" x2="433.8" y2="94.2"/>
	<line class="st2" x1="427.5" y1="99.8" x2="427.5" y2="94.2"/>
	<line class="st2" x1="421.3" y1="99.8" x2="421.3" y2="94.2"/>
	<line class="st2" x1="415.1" y1="99.8" x2="415.1" y2="94.2"/>
	<line class="st2" x1="408.9" y1="99.8" x2="408.9" y2="94.2"/>
	<line class="st2" x1="402.6" y1="99.8" x2="402.6" y2="94.2"/>
	<line class="st1" x1="203.2" y1="107" x2="203.2" y2="87"/>
	<line class="st2" x1="390.2" y1="99.8" x2="390.2" y2="94.2"/>
	<line class="st2" x1="383.9" y1="99.8" x2="383.9" y2="94.2"/>
	<line class="st2" x1="377.7" y1="99.8" x2="377.7" y2="94.2"/>
	<line class="st2" x1="371.5" y1="99.8" x2="371.5" y2="94.2"/>
	<line class="st2" x1="365.2" y1="99.8" x2="365.2" y2="94.2"/>
	<line class="st2" x1="359" y1="99.8" x2="359" y2="94.2"/>
	<line class="st2" x1="352.8" y1="99.8" x2="352.8" y2="94.2"/>
	<line class="st2" x1="346.6" y1="99.8" x2="346.6" y2="94.2"/>
	<line class="st2" x1="340.3" y1="99.8" x2="340.3" y2="94.2"/>
	<line class="st2" x1="334.1" y1="99.8" x2="334.1" y2="94.2"/>
	<line class="st2" x1="327.8" y1="99.8" x2="327.8" y2="94.2"/>
	<line class="st2" x1="321.6" y1="99.8" x2="321.6" y2="94.2"/>
	<line class="st2" x1="315.4" y1="99.8" x2="315.4" y2="94.2"/>
	<line class="st2" x1="309.2" y1="99.8" x2="309.2" y2="94.2"/>
	<line class="st2" x1="303" y1="99.8" x2="303" y2="94.2"/>
	<line class="st2" x1="296.7" y1="99.8" x2="296.7" y2="94.2"/>
	<line class="st2" x1="290.4" y1="99.8" x2="290.4" y2="94.2"/>
	<line class="st2" x1="284.2" y1="99.8" x2="284.2" y2="94.2"/>
	<line class="st2" x1="278" y1="99.8" x2="278" y2="94.2"/>
	<line class="st2" x1="271.8" y1="99.8" x2="271.8" y2="94.2"/>
	<line class="st2" x1="265.6" y1="99.8" x2="265.6" y2="94.2"/>
	<line class="st2" x1="259.4" y1="99.8" x2="259.4" y2="94.2"/>
	<line class="st2" x1="253" y1="99.8" x2="253" y2="94.2"/>
	<line class="st2" x1="246.8" y1="99.8" x2="246.8" y2="94.2"/>
	<line class="st2" x1="240.6" y1="99.8" x2="240.6" y2="94.2"/>
	<line class="st2" x1="234.4" y1="99.8" x2="234.4" y2="94.2"/>
	<line class="st2" x1="228.2" y1="99.8" x2="228.2" y2="94.2"/>
	<line class="st2" x1="222" y1="99.8" x2="222" y2="94.2"/>
	<line class="st2" x1="215.7" y1="99.8" x2="215.7" y2="94.2"/>
	<line class="st2" x1="209.4" y1="99.8" x2="209.4" y2="94.2"/>
	<line class="st1" x1="16.3" y1="107" x2="16.3" y2="87"/>
	<line class="st2" x1="197" y1="99.8" x2="197" y2="94.2"/>
	<line class="st2" x1="190.8" y1="99.8" x2="190.8" y2="94.2"/>
	<line class="st2" x1="184.6" y1="99.8" x2="184.6" y2="94.2"/>
	<line class="st2" x1="178.3" y1="99.8" x2="178.3" y2="94.2"/>
	<line class="st2" x1="172.1" y1="99.8" x2="172.1" y2="94.2"/>
	<line class="st2" x1="165.8" y1="99.8" x2="165.8" y2="94.2"/>
	<line class="st2" x1="159.6" y1="99.8" x2="159.6" y2="94.2"/>
	<line class="st2" x1="153.4" y1="99.8" x2="153.4" y2="94.2"/>
	<line class="st2" x1="147.2" y1="99.8" x2="147.2" y2="94.2"/>
	<line class="st2" x1="140.9" y1="99.8" x2="140.9" y2="94.2"/>
	<line class="st2" x1="134.7" y1="99.8" x2="134.7" y2="94.2"/>
	<line class="st2" x1="128.5" y1="99.8" x2="128.5" y2="94.2"/>
	<line class="st2" x1="122.2" y1="99.8" x2="122.2" y2="94.2"/>
	<line class="st2" x1="116" y1="99.8" x2="116" y2="94.2"/>
	<line class="st2" x1="109.8" y1="99.8" x2="109.8" y2="94.2"/>
	<line class="st2" x1="103.5" y1="99.8" x2="103.5" y2="94.2"/>
	<line class="st2" x1="97.3" y1="99.8" x2="97.3" y2="94.2"/>
	<line class="st2" x1="91.1" y1="99.8" x2="91.1" y2="94.2"/>
	<line class="st2" x1="84.9" y1="99.8" x2="84.9" y2="94.2"/>
	<line class="st2" x1="78.6" y1="99.8" x2="78.6" y2="94.2"/>
	<line class="st2" x1="72.4" y1="99.8" x2="72.4" y2="94.2"/>
	<line class="st2" x1="66.2" y1="99.8" x2="66.2" y2="94.2"/>
	<line class="st2" x1="59.9" y1="99.8" x2="59.9" y2="94.2"/>
	<line class="st2" x1="53.7" y1="99.8" x2="53.7" y2="94.2"/>
	<line class="st2" x1="47.5" y1="99.8" x2="47.5" y2="94.2"/>
	<line class="st2" x1="41.3" y1="99.8" x2="41.3" y2="94.2"/>
	<line class="st2" x1="35" y1="99.8" x2="35" y2="94.2"/>
	<line class="st2" x1="28.8" y1="99.8" x2="28.8" y2="94.2"/>
	<line class="st2" x1="22.5" y1="99.8" x2="22.5" y2="94.2"/>
</g>
<circle class="st3" cx="359.1" cy="97" r="4.8"/>
<circle class="st3" cx="446.3" cy="97" r="4.8"/>
<circle class="st3" cx="452.5" cy="97" r="4.8"/>
<circle class="st3" cx="458.7" cy="97" r="4.8"/>
<circle class="st3" cx="464.9" cy="97" r="4.8"/>
<circle class="st3" cx="471.1" cy="97" r="4.8"/>
<g class="st4">
	<text transform="matrix(1 0 0 1 91.0819 72.6316)" class="st5 st6 st7">JUNIO</text>
	<text transform="matrix(1 0 0 1 282.3752 124.4519)" class="st5 st6 st7">JULIO</text>
	<text transform="matrix(1 0 0 1 478.0454 72.6316)" class="st5 st6 st7">AGOSTO</text>
</g>
<g>
	<text transform="matrix(1 0 0 1 20.7585 148.8269)" class="st8"><tspan x="0" y="0" class="st9 st6 st10">Comienzan</tspan><tspan x="66.1" y="0" class="st9 st11 st10"> </tspan><tspan x="69.9" y="0" class="st9 st6 st10">las</tspan><tspan x="85.5" y="0" class="st9 st11 st10"> </tspan><tspan x="89.4" y="0" class="st9 st6 st10">protestas</tspan><tspan x="143.8" y="0" class="st9 st11 st10"> </tspan><tspan x="147.7" y="0" class="st9 st6 st10">contra</tspan><tspan x="185.4" y="0" class="st9 st11 st10"> </tspan><tspan x="189.2" y="0" class="st9 st6 st10">el</tspan></text>
	<text transform="matrix(1 0 0 1 23.0585 165.6267)" class="st8"><tspan x="0" y="0" class="st9 st6 st10">proyecto</tspan><tspan x="52.4" y="0" class="st9 st11 st10"> </tspan><tspan x="56.3" y="0" class="st9 st6 st10">de</tspan><tspan x="71.2" y="0" class="st9 st11 st10"> </tspan><tspan x="75.1" y="0" class="st9 st6 st10">ley</tspan><tspan x="92" y="0" class="st9 st11 st10"> </tspan><tspan x="95.9" y="0" class="st9 st6 st10">de</tspan><tspan x="110.8" y="0" class="st9 st11 st10"> </tspan><tspan x="114.7" y="0" class="st9 st6 st10">extradición</tspan></text>
</g>
<text transform="matrix(1 0 0 1 299.9235 27.303)" class="st9 st12 st10">Primera manifestación en</text>
<text transform="matrix(1 0 0 1 309.6235 44.103)" class="st9 st12 st10">en la sala de llegada</text>
<line class="st13" x1="65.6" y1="133" x2="65.6" y2="98.2"/>
<line class="st13" x1="361.8" y1="93.6" x2="361.8" y2="50.2"/>
<g>
	<text transform="matrix(1 0 0 1 384.4318 148.8267)" class="st9 st12 st10">5 días ininterrumpidos</text>
	<text transform="matrix(1 0 0 1 381.7863 165.6277)" class="st9 st12 st10">de manifestaciones que</text>
	<text transform="matrix(1 0 0 1 382.3597 182.6094)" class="st9 st12 st10">terminaron con más de</text>
	<text transform="matrix(1 0 0 1 383.9 199.2275)" class="st9 st12 st10">300 vuelos cancelados</text>
</g>
<line class="st13" x1="457.5" y1="133" x2="457.5" y2="101.6"/>
<circle class="st14" cx="66.3" cy="97" r="4.8"/>
</svg>
