<svg xmlns="http://www.w3.org/2000/svg" xmlns:xlink="http://www.w3.org/1999/xlink" version="1.1" id="Layer_1" x="0px" y="0px" viewBox="0 0 960 425" style="enable-background:new 0 0 960 425;" xml:space="preserve">
<style type="text/css">
    @import url('https://fonts.googleapis.com/css?family=Roboto:300,400,700');
	.st0{fill:#383838;}
	.st1{font-family:'Roboto';font-weight: 700;}
	.st2{font-size:14px;}
	.st3{opacity:0.5;}
	.st4{font-family:'Roboto';font-weight: 700;}
	.st5{fill:#231F20;stroke:#231F20;stroke-miterlimit:10;}
	.st6{fill:none;stroke:#000000;stroke-width:0.5;stroke-linecap:square;stroke-miterlimit:1;}
	.st7{fill:#231F20;}
	.st8{font-family:'Roboto';font-weight: 300;}
	.st9{fill:#77787B;}
</style>
<image style="overflow:visible;enable-background:new    ;" width="1920" height="926" xlink:href="https://multimedia.scmp.com/infographics/news/hong-kong/article/3022630/hong-kong-airport-protest/img/time-hkg.png" transform="matrix(0.5 0 0 0.5 0 -26)">
</image>
<g>
	<g>
		<text transform="matrix(1 0 0 1 651.4057 36.781)" class="st0 st1 st2">23:00 horas LUNES 12 DE AGOSTO</text>
	</g>
</g>
<g class="st3">
	<text transform="matrix(1 0 0 1 132.2747 36.781)" class="st0 st4 st2">23:OO horas, LUNES 5 DE AGOSTO</text>
</g>
<path class="st5" d="M270,250.6c-1.4,0-2.5,1.1-2.5,2.5s1.1,2.5,2.5,2.5s2.5-1.1,2.5-2.5C272.5,251.7,271.4,250.6,270,250.6"/>
<g>
	<g>
		<g>
			<path class="st6" d="M204.4,267.2c-2.3-12.6-14.2-21.1-26.9-19.1"/>
			<g>
				<polygon points="206,265.1 205.6,264.9 204.3,267 202.3,265.6 202,266 204.5,267.7     "/>
			</g>
		</g>
	</g>
	<path class="st5" d="M227.9,106.5c-1.4,0-2.5,1.1-2.5,2.5s1.1,2.5,2.5,2.5s2.5-1.1,2.5-2.5S229.3,106.5,227.9,106.5"/>
	<path class="st5" d="M418.4,150c-1.4,0-2.5,1.1-2.5,2.5s1.1,2.5,2.5,2.5s2.5-1.1,2.5-2.5S419.8,150,418.4,150"/>
	<path class="st5" d="M98.7,348.1c-1.4,0-2.5,1.1-2.5,2.5s1.1,2.5,2.5,2.5s2.5-1.1,2.5-2.5S100.1,348.1,98.7,348.1"/>
	<path class="st5" d="M314.2,131c-1.4,0-2.5,1.1-2.5,2.5s1.1,2.5,2.5,2.5s2.5-1.1,2.5-2.5S315.6,131,314.2,131"/>
	<text transform="matrix(1 0 0 1 235.3085 113.823)" class="st7 st8 st2">Beijing</text>
	<text transform="matrix(1 0 0 1 38.4949 354.7959)" class="st9 st8 st2">Bangkok</text>
	<g>
		<text transform="matrix(1 0 0 1 423.3054 157.0259)" class="st9 st8 st2">Tokio</text>
	</g>
	<text transform="matrix(1 0 0 1 100.6277 249.9622)" class="st7 st8 st2">Hong Kong</text>
</g>
<g>
	<g>
		<g>
			<path class="st6" d="M684.7,268.9c-1.2-6-7-10.1-13.1-9.1"/>
			<g>
				<polygon points="686.3,266.8 685.8,266.5 684.6,268.7 682.6,267.4 682.3,267.8 684.8,269.4     "/>
			</g>
		</g>
	</g>
	<path class="st5" d="M706.4,104.5c-1.4,0-2.5,1.1-2.5,2.5s1.1,2.5,2.5,2.5s2.5-1.1,2.5-2.5S707.7,104.5,706.4,104.5"/>
	<path class="st5" d="M748.5,248.6c-1.4,0-2.5,1.1-2.5,2.5s1.1,2.5,2.5,2.5s2.5-1.1,2.5-2.5C751,249.7,749.9,248.6,748.5,248.6"/>
	<path class="st5" d="M577.2,346.1c-1.4,0-2.5,1.1-2.5,2.5s1.1,2.5,2.5,2.5s2.5-1.1,2.5-2.5S578.5,346.1,577.2,346.1"/>
	<path class="st5" d="M792.7,129c-1.4,0-2.5,1.1-2.5,2.5s1.1,2.5,2.5,2.5s2.5-1.1,2.5-2.5S794.1,129,792.7,129"/>
	<text transform="matrix(1 0 0 1 711.7814 111.823)" class="st7 st8 st2">Beijing</text>
	<g>
		<text transform="matrix(1 0 0 1 902.7782 155.0259)" class="st9 st8 st2">Tokio</text>
	</g>
	<text transform="matrix(1 0 0 1 752.3242 135.2849)" class="st9 st8 st2">Seoul</text>
	<text transform="matrix(1 0 0 1 516.9677 352.7959)" class="st9 st8 st2">Bangkok</text>
	<text transform="matrix(1 0 0 1 598.9548 262.6707)" class="st7 st8 st2">Hong Kong</text>
</g>
</svg>
