<svg xmlns="http://www.w3.org/2000/svg" xmlns:xlink="http://www.w3.org/1999/xlink" version="1.1" id="Layer_1" x="0px" y="0px" viewBox="0 0 339 491.8" style="enable-background:new 0 0 339 491.8;" xml:space="preserve">
<style type="text/css">
    @import url('https://fonts.googleapis.com/css?family=Roboto:300,400,700');
	.st0{opacity:0.5;enable-background:new    ;}
	.st1{font-family:'Roboto';font-weight:300;}
	.st2{font-size:12px;}
	.st3{opacity:0.5;fill:#383838;enable-background:new    ;}
	.st4{font-family:'Roboto';font-weight: 700;}
	.st5{font-size:14px;}
	.st6{opacity:0.5;fill:none;stroke:#FF513F;stroke-width:1.5;stroke-miterlimit:10;enable-background:new    ;}
	.st7{fill:none;stroke:#C4C5C7;stroke-width:2;stroke-miterlimit:10;}
	.st8{font-size:16px;}
	.st9{opacity:0.5;}
	.st10{font-family:'Roboto';font-weight: 300;font-style:italic;}
	.st11{font-size:10px;}
	.st12{fill:none;stroke:url(#SVGID_1_);stroke-width:4;stroke-miterlimit:10;}
	.st13{fill:url(#SVGID_2_);}
	.st14{fill:none;stroke:url(#SVGID_3_);stroke-width:4;stroke-miterlimit:10;}
	.st15{fill:url(#SVGID_4_);}
	.st16{fill:none;stroke:url(#SVGID_5_);stroke-width:4;stroke-miterlimit:10;}
	.st17{fill:url(#SVGID_6_);}
	.st18{fill:url(#SVGID_7_);}
	.st19{fill:url(#SVGID_8_);}
</style>
<image style="overflow:visible;enable-background:new    ;" width="1200" height="1497" xlink:href="https://multimedia.scmp.com/infographics/news/hong-kong/article/3022630/hong-kong-airport-protest/img/hk-flights.png" transform="matrix(0.2825 0 0 0.2825 0 50.9391)">
</image>
<text transform="matrix(1 0 0 1 141.8778 145.6816)" class="st0 st1 st2">SHENZHEN</text>
<text transform="matrix(1 0 0 1 46.895 32.3018)" class="st3 st4 st5">SALIDAS DE 12:00 A 13:00 HORAS</text>
<path class="st6" d="M152.5,250.8l-45.3,16.8c-4.8,1.8-7.5,7-6.2,11.9l51.5,194.4"/>
<path class="st6" d="M152.5,250.8L108,268.4c-4.8,1.9-7.3,7.1-5.9,12l54.4,193.5"/>
<path class="st6" d="M152.5,251.9l-44.4,16.7c-4.8,1.8-7.4,6.9-6.2,11.8l9,35.9c1.4,5.7,7.4,8.9,12.9,7.1l24.1-8.1  c2-0.7,3.7-2,5-3.7L339,53"/>
<path class="st6" d="M152.5,251.9l-45.1,15.7c-4.9,1.7-7.7,7-6.4,12l10.1,38.1c1.4,5.1,6.4,8.3,11.6,7.2l25.8-5.1  c2.6-0.5,4.8-2,6.3-4.1L339,57"/>
<path class="st6" d="M152.5,250.8L108.7,268c-4.6,1.8-7.2,6.8-6.1,11.6l11.1,47.5c0.7,2.8,2.5,5.2,5.1,6.6L339,449.9"/>
<path class="st6" d="M152.5,250.8L108,268.4c-4.8,1.9-7.3,7.1-5.9,12l58.4,193.5"/>
<circle cx="152.3" cy="250.9" r="3"/>
<path class="st7" d="M190.4,183.6l5.1-2.1l1.8-2.1l2.6-4.1l2.1-3.2l2.6-0.5l2.9,0.2l4,2.4l5-2.6l6.9-2.6l2.1-4.1l3.7-1.5l4.7,1.5  l4.5-0.3l4.5,0.9l7.2,1.9"/>
<g>
	<text transform="matrix(1 0 0 1 126.5872 240.5664)" class="st4 st8">Aeropuerto</text>
</g>
<g class="st9">
	<text transform="matrix(1 0 0 1 226.4213 441)" class="st10 st11">Mar del</text>
	<text transform="matrix(1 0 0 1 217.8213 453)" class="st10 st11">sur de China</text>
</g>
<g class="st9">
	<g>

			<linearGradient id="SVGID_1_" gradientUnits="userSpaceOnUse" x1="116.5" y1="-7952.8213" x2="116.5" y2="-7907.8047" gradientTransform="matrix(1 0 0 -1 0 -7520)">
			<stop offset="0" style="stop-color:#000000"/>
			<stop offset="0.8777" style="stop-color:#000000;stop-opacity:0.1223"/>
			<stop offset="1" style="stop-color:#000000;stop-opacity:0"/>
		</linearGradient>
		<line class="st12" x1="111.3" y1="388.4" x2="121.7" y2="424"/>
		<g>

				<linearGradient id="SVGID_2_" gradientUnits="userSpaceOnUse" x1="121.25" y1="-7952.8213" x2="121.25" y2="-7907.8047" gradientTransform="matrix(1 0 0 -1 0 -7520)">
				<stop offset="0" style="stop-color:#000000"/>
				<stop offset="0.8777" style="stop-color:#000000;stop-opacity:0.1223"/>
				<stop offset="1" style="stop-color:#000000;stop-opacity:0"/>
			</linearGradient>
			<polygon class="st13" points="115.5,424 124.1,432.3 127,420.6    "/>
		</g>
	</g>
</g>
<g class="st9">
	<g>

			<linearGradient id="SVGID_3_" gradientUnits="userSpaceOnUse" x1="277.1298" y1="-7931.0693" x2="244.8284" y2="-7899.7139" gradientTransform="matrix(1 0 0 -1 0 -7520)">
			<stop offset="0" style="stop-color:#000000"/>
			<stop offset="0.8777" style="stop-color:#000000;stop-opacity:0.1223"/>
			<stop offset="1" style="stop-color:#000000;stop-opacity:0"/>
		</linearGradient>
		<line class="st14" x1="241.6" y1="383.8" x2="274.4" y2="401.2"/>
		<g>

				<linearGradient id="SVGID_4_" gradientUnits="userSpaceOnUse" x1="280.4355" y1="-7927.665" x2="248.1341" y2="-7896.3096" gradientTransform="matrix(1 0 0 -1 0 -7520)">
				<stop offset="0" style="stop-color:#000000"/>
				<stop offset="0.8777" style="stop-color:#000000;stop-opacity:0.1223"/>
				<stop offset="1" style="stop-color:#000000;stop-opacity:0"/>
			</linearGradient>
			<polygon class="st15" points="270.1,405.6 282,405.2 275.7,395.1    "/>
		</g>
	</g>
</g>
<g class="st9">
	<g>

			<linearGradient id="SVGID_5_" gradientUnits="userSpaceOnUse" x1="327.1782" y1="-7624.291" x2="292.9741" y2="-7653.5591" gradientTransform="matrix(1 0 0 -1 0 -7520)">
			<stop offset="0" style="stop-color:#000000"/>
			<stop offset="0.8777" style="stop-color:#000000;stop-opacity:0.1223"/>
			<stop offset="1" style="stop-color:#000000;stop-opacity:0"/>
		</linearGradient>
		<line class="st16" x1="296.8" y1="137.1" x2="317.1" y2="106.1"/>
		<g>

				<linearGradient id="SVGID_6_" gradientUnits="userSpaceOnUse" x1="324.1055" y1="-7620.6997" x2="289.9015" y2="-7649.9678" gradientTransform="matrix(1 0 0 -1 0 -7520)">
				<stop offset="0" style="stop-color:#000000"/>
				<stop offset="0.8777" style="stop-color:#000000;stop-opacity:0.1223"/>
				<stop offset="1" style="stop-color:#000000;stop-opacity:0"/>
			</linearGradient>
			<polygon class="st17" points="321.1,110.8 321.8,98.9 311.1,104.3    "/>
		</g>
	</g>
</g>
<linearGradient id="SVGID_7_" gradientUnits="userSpaceOnUse" x1="-5067.0796" y1="-5213.9512" x2="-5067.0796" y2="-5180.1509" gradientTransform="matrix(6.123234e-17 -1 -1 -6.123234e-17 -4875.251 -4642.7295)">
	<stop offset="0" style="stop-color:#FFFFFF"/>
	<stop offset="1" style="stop-color:#FFFFFF;stop-opacity:0"/>
</linearGradient>
<polygon class="st18" points="304.9,362.4 304.9,486.3 338.7,486.3 338.7,362.4 "/>
<linearGradient id="SVGID_8_" gradientUnits="userSpaceOnUse" x1="-3269.5793" y1="-5877.9507" x2="-3269.5793" y2="-5844.1509" gradientTransform="matrix(1 0 0 -1 3411.4294 -5403.0508)">
	<stop offset="0" style="stop-color:#FFFFFF"/>
	<stop offset="1" style="stop-color:#FFFFFF;stop-opacity:0"/>
</linearGradient>
<polygon class="st19" points="203.8,441.1 79.9,441.1 79.9,474.9 203.8,474.9 "/>
<text transform="matrix(1 0 0 1 208.1257 317.1641)" class="st0 st4 st8">HONG KONG</text>
</svg>
